<svg fill="none" height="48" viewBox="0 0 40 48" width="40" xmlns="http://www.w3.org/2000/svg"><g fill="#155eef"><path d="m23.4538 34.7189c-3.1818-1.1818-6.4544-1.3636-9.4544-.5455-2.0909.5455-4.09082 1.6364-5.90897 3l-1.27273 1.0909-.36362.3636.81816.7273c.09091 0 .09092.0909.18183.1818.18181.1818.36364.2727.63636.4545l.54542.3636.54545-.4545c.09091-.0909.27273-.2727.45454-.3636 1.63636-1.3636 3.45446-2.2727 5.36356-2.7272 2.4545-.6364 5.0908-.5455 7.7271.4545 2.1818.8182 6.6363 1.8181 11.9998-.4545l.1818-.091.2728-.2727c0-.0909.0909-.0909.1818-.1818.4545-.5454.9091-1.0909 1.2727-1.7272l1.8181-2.8182-2.909 1.6363c-4.2727 2.3636-8.1817 2.8182-12.0907 1.3637z"/><path d="m10.9998 24.9011c2.4545-.6363 5.0908-.5454 7.7272.4546 2.909 1.0909 10.3634 2.6363 18.7269-4.909l1.8182-1.8182-.1819-.4545c-.0909-.3636-.2727-.8182-.4545-1.2727l-.4545-1.2727-.9091.909c-.0909.1819-.2727.2728-.4546.4546-3.9999 4.0908-10.1816 8.2726-17.2724 5.7272-3.1817-1.1818-6.4544-1.3637-9.4544-.5455-2.909.8182-5.45442 2.3636-7.81801 4.5454v-.0909l-1.363614 1.4545c0 .0909-.090891.0909-.181798.1818l-.27274.2727.090913.3637c.090908.4545.272717.909.363625 1.3636l.545454 1.4545.90907-1.1818c.09091-.1818.27272-.2727.36363-.4545 1.90905-1.7273 4.54538-4.1818 8.27257-5.1818z"/><path d="m2.1818 23.2646c2.09088-2.1818 4.45445-3.5454 6.99987-4.2727 2.45453-.6363 5.09083-.5454 7.72713.4546 8.1817 2.9999 15.2725-1.9091 18.3633-4.5454l1.1818-1.1818.4546-.3636-.3637-.5455c-.2727-.2727-.4545-.6363-.7272-1l-.5455-.7272-.6363.6363c-.0909.0909-.2727.2727-.3637.3637-3.8181 3.6363-9.7271 7.3635-16.4542 4.8181-3.1818-1.1818-6.4544-1.3637-9.4544-.5455-1.90906.5455-3.72721 1.4545-5.54536 2.6363l-1.909065 1.5455c-.181815.1818-.272722.2727-.454537.4545l-.181799.1818v.2727c-.090907.6364-.090918 1.2727-.1818259 1.8182l-.0909131 2.2727 1.54544-1.6364c.18181-.1818.36364-.4545.63636-.6363z"/><path d="m26.0908 40.9007c-.2727-.0909-.4545-.1819-.7272-.2728-3.1818-1.1818-6.4545-1.3636-9.4545-.5454-.6363.1818-1.2726.3636-1.909.6364l-2.1818.9999-.5454.2728 1.8181.6363c.5455.1818 1.0909.3637 1.6364.5455l.2727.0909.2727-.0909c.2727-.0909.5455-.2728.8182-.2728.1818 0 .3636-.0909.5454-.1818 2.1818-.5454 4.5454-.5454 7.0908.2727.2727.091.4546.1819.7273.2728l.4545.1818.2727-.0909c.6364-.1818 1.3636-.3636 1.9091-.6364l2.5454-.909-2.6363-.6364c-.2727-.0909-.6364-.1818-.9091-.2727z"/><path d="m40 22.0829-1.3636 1.3636c-.1818.1818-.3636.3636-.5454.5454-3.7272 3.5454-9.7271 7.3635-16.4543 4.8181-3.1818-1.1818-6.4544-1.3636-9.4544-.5454-2.81811.8182-5.36354 2.2727-7.63623 4.4545l-1.18179 1.2727-.36362.4545.36362.5454c.27273.3637.45455.6364.63637 1l.54542.8182.63636-.8182c.09091-.0909.27272-.2727.36363-.3636 2.18178-2.3636 4.54534-3.8181 7.27264-4.5454 2.4545-.6364 5.0908-.5454 7.7271.4545 2.2727.8182 4.6363 1.0909 6.9999.8182 4.1817-.4545 8.3635-2.8181 11.4543-5.4544.1819-.1818.3636-.2727.5455-.4546l.2727-.2727v-.2727c0-.5455.0909-1.1818.0909-1.7273z"/><path d="m5.45373 13.7196c.54545-.2728 1.18182-.4546 1.72726-.6364 2.45451-.6364 5.09081-.5455 7.72711.4545 1.7273.6364 3.4545.9091 5.3636.9091 3.8181 0 7.6362-1.3636 11.1816-3.9999l1.8181-1.45455-.8181-.63636c-.2727-.27273-.6364-.54544-1-.72725l-.5455-.36363-.4545.36363c-.1818.09091-.2727.27272-.4545.36362-4.8181 3.63634-9.6362 4.63634-14.1816 2.90904-3.2727-1.18178-6.54535-1.45451-9.81802-.4545-.27272.0909-.54544.1818-.90907.2727l-.1818.0909-.27274.2727c0 .0909-.09089.0909-.1818.1818-.36363.5455-.81818 1-1.18181 1.5455l-1.72724 2.6363 2.81814-1.4545c.45453 0 .81815-.1818 1.09087-.2727z"/><path d="m12.9089 7.53769.2727.09091c1.1818.45454 3 .90907 5.2726.90907 2.3636 0 4.6363-.54545 6.909-1.45452l2.8181-1.36361-1.909-.63634c-.5454-.18182-1.0909-.36363-1.7273-.45454h-.2727l-.2727.09089c-.2727.0909-.5455.27274-.8182.36365-2.7272.99998-5.4544 1.1818-8.0907.45454-.2728-.09091-.5455-.18183-.8182-.27274l-.2727-.09091-.2728.09091c-.5454.18181-1.0908.36364-1.6363.63636l-2.09087.90908 2.18177.63633c.1818-.0909.4546.00001.7273.09092z"/></g></svg>